<?xml version="1.0" encoding="utf-8"?>
<svg version="1.1" id="Layer_1" xmlns="http://www.w3.org/2000/svg" xmlns:xlink="http://www.w3.org/1999/xlink" x="0px" y="0px"
	 width="500px" height="500px" viewBox="0 0 500 500" enable-background="new 0 0 500 500" xml:space="preserve">
<g>
	<path fill-rule="evenodd" clip-rule="evenodd" d="M74.076,36.917c10.975,0.205,19.717,3.713,27.251,10.612
		c11.53,10.557,21.01,11.351,34.639,3.888C213.687,8.861,291.492,8.75,369.247,51.316c13.732,7.517,23.171,6.72,34.697-3.615
		c16.205-14.529,38.698-14.3,53.201,0.543c14.298,14.634,14.239,36.725-0.14,52.688c-10.085,11.197-11.07,20.903-3.835,34.065
		c42.844,77.951,42.876,155.97,0.123,233.962c-7.423,13.536-6.47,22.88,4.046,34.652c14.184,15.877,13.953,38.252-0.542,52.675
		c-14.494,14.425-36.791,14.572-52.69,0.351c-11.72-10.483-21.021-11.368-34.664-3.891c-77.716,42.608-155.519,42.669-233.275,0.121
		c-13.749-7.523-23.171-6.729-34.703,3.596c-16.201,14.505-38.751,14.281-53.223-0.529c-14.26-14.595-14.191-36.741,0.165-52.699
		c10.065-11.188,11.034-20.908,3.798-34.075C9.372,291.208,9.32,213.188,52.108,135.201c7.406-13.499,6.417-22.876-4.07-34.654
		c-11.051-12.412-13.684-26.576-6.961-41.66C47.443,44.6,59.342,37.668,74.076,36.917z M424.563,252.277
		c0.1-94.724-77.141-172.048-171.863-172.05c-94.423,0-171.577,76.9-171.863,171.301c-0.289,94.735,76.796,172.241,171.49,172.425
		C347.056,424.141,424.464,346.984,424.563,252.277z"/>
	<path fill-rule="evenodd" clip-rule="evenodd" d="M349.855,252.286c-0.087,53.807-43.334,96.962-97.169,96.96
		c-54.134-0.002-97.385-43.51-97.148-97.729c0.233-53.741,43.675-96.756,97.544-96.586
		C306.867,155.099,349.941,198.433,349.855,252.286z M252.853,188.939c-33.819,0.278-62.624,28.953-63.291,60.137
		c-0.1,4.662,0.861,8.988,6.299,9.245c5.526,0.26,6.54-4.086,7.015-8.681c2.874-27.775,19.499-44.253,47.785-47.385
		c4.688-0.518,9.163-2.023,7.985-7.355C258.013,192.043,253.909,189.954,252.853,188.939z"/>
</g>
</svg>
