<?xml version="1.0" encoding="utf-8"?>
<!-- Generator: Adobe Illustrator 16.0.3, SVG Export Plug-In . SVG Version: 6.00 Build 0)  -->
<!DOCTYPE svg PUBLIC "-//W3C//DTD SVG 1.1//EN" "http://www.w3.org/Graphics/SVG/1.1/DTD/svg11.dtd">
<svg version="1.1" id="Layer_1" xmlns="http://www.w3.org/2000/svg" xmlns:xlink="http://www.w3.org/1999/xlink" x="0px" y="0px"
	 width="744.392px" height="331.48px" viewBox="0 0 744.392 331.48" style="enable-background:new 0 0 744.392 331.48;"
	 xml:space="preserve">
<style type="text/css">
<![CDATA[
	.st0 {
		fill: #1b330d;
	}
	.st1 {
		fill:#1b330d;
		);		
	}
]]>
</style>
<g>
	<path class="st0" d="M119.142,116.218l44.143,79.238l-71.52,129.242l-3.757,6.782H0l10.802-19.528L119.142,116.218z
		 M382.376,331.48h-88.008l-3.756-6.782l-65.864-119.04l-32.273-58.292l-1.286-2.324l-44.143-79.238l0.146-0.263l3.523-6.373
		l28.722-51.875L182.813,0h16.854l3.26,7.265l28.736,51.904l139.912,252.783L382.376,331.48z"/>
	<path class="st1" d="M501.167,202.238l43.617,59.096l-47.709,64.797l-3.932,5.35h-87.146l15.436-20.961L501.167,202.238z
		 M744.392,331.48h-87.131l-3.947-5.364l-44.537-60.47l-33.545-45.561l-0.045,0.059l-0.043-0.045l-43.617-59.08l0.104-0.146
		L429.371,21.969L413.935,1.023h87.117l3.945,5.35l70.205,95.331l70.189-95.331l3.947-5.35h87.131l-15.436,20.961L618.761,160.873
		L728.957,310.52L744.392,331.48z"/>
</g>
</svg>
