<?xml version="1.0" encoding="utf-8"?>
<!DOCTYPE svg PUBLIC "-//W3C//DTD SVG 1.1//EN" "http://www.w3.org/Graphics/SVG/1.1/DTD/svg11.dtd">
<svg version="1.1" id="Layer_1" xmlns="http://www.w3.org/2000/svg" xmlns:xlink="http://www.w3.org/1999/xlink" x="0px" y="0px"
	 width="500px" height="500px" viewBox="0 0 500 500" enable-background="new 0 0 500 500" xml:space="preserve">
<g>
	<path fill-rule="evenodd" clip-rule="evenodd" d="M290.829,475.213c-26.67,0-52.942,0.129-79.209-0.287
		c-1.76-0.028-4.603-3.994-4.982-6.435c-1.647-10.597-2.842-21.284-3.658-31.981c-0.532-6.979-3.148-10.874-10.309-13.112
		c-9.665-3.02-18.968-7.401-28.083-11.896c-4.853-2.393-8.158-1.986-12.256,1.439c-10.474,8.754-21.33,17.05-34.208,27.253
		c-5.469-6.357-10.413-12.715-15.987-18.462c-11.974-12.34-24.134-24.51-36.516-36.438c-4.159-4.008-4.451-6.854-0.642-11.391
		c7.939-9.453,15.488-19.264,22.632-29.327c1.543-2.174,1.77-6.451,0.77-9.055c-4.026-10.487-9.182-20.547-13.074-31.079
		c-1.909-5.165-4.767-7.08-9.896-7.553c-11.218-1.036-22.437-2.236-33.564-3.96c-2.458-0.38-6.475-3.173-6.502-4.907
		c-0.418-26.27-0.29-52.547-0.29-79.285c13.575-1.794,27.093-3.724,40.652-5.302c5.415-0.63,8.2-2.791,10.055-8.338
		c3.301-9.871,7.832-19.357,12.244-28.82c2.034-4.365,2.165-7.61-1.123-11.639c-8.811-10.798-17.092-22.028-25.864-33.45
		c1.474-1.894,2.581-3.667,4.017-5.11c16.299-16.374,32.751-32.596,48.909-49.105c3.969-4.055,6.976-4.663,11.485-0.823
		c8.583,7.309,17.725,13.956,26.348,21.218c4.241,3.572,7.827,4.186,13.054,1.629c9.606-4.7,19.55-8.821,29.637-12.38
		c5.4-1.905,7.757-4.873,8.258-10.343c1.003-10.956,2.588-21.861,3.477-32.823c0.51-6.303,2.914-8.791,9.583-8.681
		c22.568,0.37,45.145,0.31,67.715,0.024c5.795-0.073,7.787,1.551,8.259,7.576c0.915,11.74,2.654,23.454,4.852,35.027
		c0.545,2.866,3.656,6.192,6.439,7.516c10.393,4.945,21.249,8.912,31.702,13.744c4.201,1.942,7.071,1.919,10.787-1.163
		c9.088-7.541,18.778-14.353,27.905-21.849c4.061-3.335,6.709-2.824,10.202,0.723c16.401,16.65,32.916,33.192,49.596,49.563
		c3.69,3.623,3.702,6.434,0.558,10.268c-7.321,8.927-14.264,18.165-21.607,27.072c-2.895,3.513-3.457,6.146-1.142,10.637
		c5.145,9.982,9.913,20.301,13.357,30.96c1.958,6.058,4.984,7.976,10.619,8.643c12.993,1.538,25.938,3.481,39.763,5.378
		c0,12.544,0,24.588,0,36.633c-0.002,12.63-0.4,25.277,0.151,37.884c0.312,7.152-2.824,9.465-9.194,10.058
		c-10.414,0.969-20.782,2.438-31.191,3.467c-5.023,0.494-7.889,2.248-9.771,7.606c-3.72,10.592-8.352,20.932-13.452,30.945
		c-2.661,5.22-2.007,8.678,1.532,12.91c7.229,8.645,13.881,17.771,21.051,26.467c3.064,3.714,2.662,6.296-0.647,9.566
		c-16.814,16.613-33.539,33.323-50.121,50.172c-3.402,3.456-6.049,3.251-9.613,0.429c-9.466-7.5-18.959-14.995-28.834-21.931
		c-2.273-1.597-6.541-2.101-9.171-1.139c-11.306,4.132-22.444,8.775-33.398,13.772c-2.413,1.101-5.073,4.194-5.486,6.721
		C294.396,446.205,292.814,460.068,290.829,475.213z M320.941,250.558c-0.003-39.613-31.475-71.316-70.805-71.33
		c-39.32-0.013-71.008,31.752-71.041,71.216c-0.032,39.134,32.009,70.989,71.32,70.907
		C289.461,321.27,320.946,289.664,320.941,250.558z"/>
	<path fill-rule="evenodd" clip-rule="evenodd" fill="#FFFFFF" d="M301.775,265.649c0.003,24.244-19.517,43.838-43.723,43.889
		c-24.371,0.051-44.235-19.698-44.215-43.96c0.02-24.465,19.666-44.159,44.042-44.15
		C282.263,221.436,301.773,241.091,301.775,265.649z"/>
</g>
</svg>
