<?xml version="1.0" encoding="utf-8"?>
<!DOCTYPE svg PUBLIC "-//W3C//DTD SVG 1.1//EN" "http://www.w3.org/Graphics/SVG/1.1/DTD/svg11.dtd">
<svg version="1.1" id="Layer_1" xmlns="http://www.w3.org/2000/svg" xmlns:xlink="http://www.w3.org/1999/xlink" x="0px" y="0px"
	 width="500px" height="500px" viewBox="0 0 500 500" enable-background="new 0 0 500 500" xml:space="preserve">
<g>
	<defs>
		<rect id="SVGID_1_" x="17.885" y="17.656" width="474.884" height="474.885"/>
	</defs>
	<clipPath id="SVGID_2_">
		<use xlink:href="#SVGID_1_"  overflow="visible"/>
	</clipPath>
	<path clip-path="url(#SVGID_2_)" d="M403.023,202.852c12.559,0.201,22.643-9.445,22.941-21.96
		c0.283-11.968-9.563-22.195-21.643-22.474c-12.299-0.278-22.756,9.646-23.08,21.911C380.939,191.895,391.35,202.66,403.023,202.852
		 M314.592,202.824c12.574-0.188,22.535-10.289,22.273-22.588c-0.256-12.215-10.146-21.902-22.289-21.821
		c-12.322,0.081-22.734,10.555-22.426,22.569C292.449,192.872,302.859,203,314.592,202.824 M196.137,158.417
		c-12.309-0.111-22.771,10.091-22.792,22.22c-0.019,11.702,10.439,22.199,22.121,22.208c12.546,0.012,22.624-9.893,22.654-22.267
		C218.153,168.549,208.208,158.526,196.137,158.417 M106.302,202.852c12.521,0.056,22.639-9.825,22.734-22.199
		c0.094-12.014-9.838-22.086-21.912-22.235c-12.311-0.151-22.775,9.986-22.866,22.146
		C84.168,192.207,94.647,202.796,106.302,202.852 M166.345,105.847h177.426C281.322,45.441,225.944,48.765,166.345,105.847
		 M77.201,432.898h355.924V255.291H77.201V432.898z M254.67,492.516c-57.72,0-115.443,0.043-173.164-0.025
		c-20.641-0.023-38.165-6.939-51.129-23.74c-8.389-10.867-12.343-23.289-12.363-36.785c-0.13-88.191-0.215-176.375,0.017-264.566
		c0.088-34.701,26.14-61.336,60.971-60.418c17.368,0.455,29.484-3.88,41.036-17.424c22.71-26.623,51.15-46.441,83.262-60.604
		c34.362-15.149,68.958-14.905,103.343-0.213c38.232,16.33,69.1,42.48,96.465,73.273c2.148,2.421,6.201,3.995,9.537,4.338
		c11.662,1.202,23.844-0.044,35.021,2.801c28.012,7.136,44.801,29.718,44.885,59.317c0.26,87.242,0.332,174.49-0.02,261.734
		c-0.148,36.977-26.281,62.223-63.283,62.285C371.057,492.586,312.863,492.516,254.67,492.516"/>
	<path clip-path="url(#SVGID_2_)" d="M150.698,299.127c0.121,8.734-5.752,14.896-14.265,14.963
		c-7.981,0.063-14.165-6.084-14.373-14.275c-0.212-8.4,5.955-14.773,14.392-14.867C144.629,284.855,150.581,290.783,150.698,299.127
		"/>
	<path clip-path="url(#SVGID_2_)" d="M210.096,299.402c-0.003,8.672-6.104,14.84-14.545,14.705
		c-7.893-0.125-14.074-6.502-14.128-14.566c-0.054-8.354,6.316-14.67,14.696-14.576
		C204.327,285.055,210.099,291.018,210.096,299.402"/>
	<path clip-path="url(#SVGID_2_)" d="M269.488,299.307c0.039,8.693-5.982,14.855-14.448,14.793
		c-7.902-0.055-14.11-6.375-14.214-14.463c-0.111-8.369,6.188-14.707,14.592-14.68C263.609,284.982,269.443,290.938,269.488,299.307
		"/>
	<path clip-path="url(#SVGID_2_)" d="M328.875,299.619c-0.104,8.67-6.32,14.771-14.756,14.48c-7.982-0.275-13.965-6.637-13.9-14.775
		c0.074-8.395,6.506-14.582,14.902-14.35C323.33,285.203,328.979,291.215,328.875,299.619"/>
	<path clip-path="url(#SVGID_2_)" d="M388.273,299.523c-0.059,8.668-6.236,14.809-14.664,14.59
		c-7.92-0.211-14.018-6.602-14.004-14.691c0.012-8.367,6.426-14.625,14.811-14.451C382.613,285.137,388.326,291.135,388.273,299.523
		"/>
	<path clip-path="url(#SVGID_2_)" d="M150.695,388.832c-0.13,8.66-6.375,14.748-14.8,14.428c-8.014-0.311-13.943-6.658-13.845-14.82
		c0.098-8.418,6.525-14.566,14.943-14.303C145.215,374.4,150.819,380.412,150.695,388.832"/>
	<path clip-path="url(#SVGID_2_)" d="M210.088,388.832c-0.13,8.66-6.376,14.748-14.801,14.428
		c-8.013-0.311-13.942-6.658-13.845-14.82c0.099-8.418,6.525-14.566,14.944-14.303C204.608,374.4,210.212,380.412,210.088,388.832"
		/>
	<path clip-path="url(#SVGID_2_)" d="M269.482,388.359c0.092,8.721-5.832,14.881-14.334,14.9
		c-7.915,0.014-14.146-6.234-14.313-14.35c-0.171-8.383,6.057-14.744,14.467-14.793
		C263.496,374.066,269.398,379.996,269.482,388.359"/>
	<path clip-path="url(#SVGID_2_)" d="M328.879,388.465c0.041,8.697-5.973,14.859-14.445,14.801
		c-7.895-0.061-14.109-6.379-14.215-14.461c-0.111-8.369,6.184-14.707,14.586-14.686C322.998,374.143,328.836,380.1,328.879,388.465
		"/>
	<path clip-path="url(#SVGID_2_)" d="M388.271,388.598c-0.014,8.664-6.145,14.83-14.574,14.676
		c-7.889-0.154-14.068-6.547-14.102-14.6c-0.035-8.352,6.352-14.66,14.73-14.545C382.52,374.236,388.289,380.229,388.271,388.598"/>
	<path clip-path="url(#SVGID_2_)" d="M166.151,329.791c8.811,0.053,14.418,5.82,14.256,14.662
		c-0.151,8.336-5.981,14.006-14.329,13.936c-8.769-0.07-14.452-5.912-14.294-14.686
		C151.932,335.359,157.735,329.734,166.151,329.791"/>
	<path clip-path="url(#SVGID_2_)" d="M225.521,358.393c-8.789-0.057-14.474-5.859-14.341-14.641
		c0.126-8.355,5.904-13.996,14.316-13.965c8.813,0.029,14.44,5.783,14.304,14.617C239.669,352.746,233.853,358.441,225.521,358.393"
		/>
	<path clip-path="url(#SVGID_2_)" d="M284.539,329.766c8.842-0.123,14.617,5.504,14.652,14.287
		c0.025,8.389-5.67,14.262-13.93,14.357c-8.834,0.105-14.621-5.543-14.664-14.311C270.551,335.699,276.203,329.887,284.539,329.766"
		/>
	<path clip-path="url(#SVGID_2_)" d="M358.584,343.914c0.094,8.391-5.57,14.352-13.789,14.506c-8.82,0.164-14.68-5.451-14.793-14.18
		c-0.115-8.424,5.475-14.285,13.785-14.469C352.648,329.58,358.484,335.158,358.584,343.914"/>
</g>
</svg>
